<mxfile host="app.diagrams.net" modified="2023-11-08T08:37:27.095Z" agent="Mozilla/5.0 (Macintosh; Intel Mac OS X 10_15_7) AppleWebKit/537.36 (KHTML, like Gecko) Chrome/118.0.0.0 Safari/537.36" etag="lPW7OO02SaWBK67Ti2qH" version="22.0.8" type="github">
  <diagram id="C5RBs43oDa-KdzZeNtuy" name="Page-1">
    <mxGraphModel dx="940" dy="524" grid="1" gridSize="10" guides="1" tooltips="1" connect="1" arrows="1" fold="1" page="1" pageScale="1" pageWidth="827" pageHeight="1169" math="0" shadow="0">
      <root>
        <mxCell id="WIyWlLk6GJQsqaUBKTNV-0" />
        <mxCell id="WIyWlLk6GJQsqaUBKTNV-1" parent="WIyWlLk6GJQsqaUBKTNV-0" />
        <mxCell id="547pOjAtnvaFCTecrOGO-0" value="先付款後就餐" style="rounded=1;whiteSpace=wrap;html=1;fontSize=12;glass=0;strokeWidth=1;shadow=0;" parent="WIyWlLk6GJQsqaUBKTNV-1" vertex="1">
          <mxGeometry x="40" y="240" width="80" height="40" as="geometry" />
        </mxCell>
        <mxCell id="547pOjAtnvaFCTecrOGO-5" style="edgeStyle=orthogonalEdgeStyle;rounded=0;orthogonalLoop=1;jettySize=auto;html=1;entryX=0;entryY=0.5;entryDx=0;entryDy=0;" parent="WIyWlLk6GJQsqaUBKTNV-1" source="547pOjAtnvaFCTecrOGO-1" target="547pOjAtnvaFCTecrOGO-4" edge="1">
          <mxGeometry relative="1" as="geometry" />
        </mxCell>
        <mxCell id="547pOjAtnvaFCTecrOGO-1" value="代付款" style="rounded=1;whiteSpace=wrap;html=1;fontSize=12;glass=0;strokeWidth=1;shadow=0;" parent="WIyWlLk6GJQsqaUBKTNV-1" vertex="1">
          <mxGeometry x="162" y="320" width="120" height="40" as="geometry" />
        </mxCell>
        <mxCell id="547pOjAtnvaFCTecrOGO-2" value="" style="endArrow=none;html=1;strokeWidth=2;rounded=0;" parent="WIyWlLk6GJQsqaUBKTNV-1" edge="1">
          <mxGeometry width="50" height="50" relative="1" as="geometry">
            <mxPoint x="32" y="390" as="sourcePoint" />
            <mxPoint x="852" y="390" as="targetPoint" />
          </mxGeometry>
        </mxCell>
        <mxCell id="547pOjAtnvaFCTecrOGO-7" style="edgeStyle=orthogonalEdgeStyle;rounded=0;orthogonalLoop=1;jettySize=auto;html=1;entryX=0;entryY=0.5;entryDx=0;entryDy=0;" parent="WIyWlLk6GJQsqaUBKTNV-1" source="547pOjAtnvaFCTecrOGO-4" target="547pOjAtnvaFCTecrOGO-6" edge="1">
          <mxGeometry relative="1" as="geometry" />
        </mxCell>
        <mxCell id="547pOjAtnvaFCTecrOGO-4" value="製作中" style="rounded=1;whiteSpace=wrap;html=1;fontSize=12;glass=0;strokeWidth=1;shadow=0;" parent="WIyWlLk6GJQsqaUBKTNV-1" vertex="1">
          <mxGeometry x="352" y="320" width="120" height="40" as="geometry" />
        </mxCell>
        <mxCell id="547pOjAtnvaFCTecrOGO-13" style="edgeStyle=orthogonalEdgeStyle;rounded=0;orthogonalLoop=1;jettySize=auto;html=1;entryX=0;entryY=0.5;entryDx=0;entryDy=0;" parent="WIyWlLk6GJQsqaUBKTNV-1" source="547pOjAtnvaFCTecrOGO-6" target="547pOjAtnvaFCTecrOGO-12" edge="1">
          <mxGeometry relative="1" as="geometry" />
        </mxCell>
        <mxCell id="547pOjAtnvaFCTecrOGO-6" value="代取餐" style="rounded=1;whiteSpace=wrap;html=1;fontSize=12;glass=0;strokeWidth=1;shadow=0;" parent="WIyWlLk6GJQsqaUBKTNV-1" vertex="1">
          <mxGeometry x="552" y="320" width="120" height="40" as="geometry" />
        </mxCell>
        <mxCell id="547pOjAtnvaFCTecrOGO-46" style="rounded=0;orthogonalLoop=1;jettySize=auto;html=1;" parent="WIyWlLk6GJQsqaUBKTNV-1" source="547pOjAtnvaFCTecrOGO-8" target="547pOjAtnvaFCTecrOGO-39" edge="1">
          <mxGeometry relative="1" as="geometry" />
        </mxCell>
        <mxCell id="547pOjAtnvaFCTecrOGO-8" value="用戶支付" style="rounded=1;whiteSpace=wrap;html=1;fontSize=12;glass=0;strokeWidth=1;shadow=0;fillColor=#F2EEEE;" parent="WIyWlLk6GJQsqaUBKTNV-1" vertex="1">
          <mxGeometry x="352" y="170" width="120" height="40" as="geometry" />
        </mxCell>
        <mxCell id="547pOjAtnvaFCTecrOGO-11" style="edgeStyle=orthogonalEdgeStyle;rounded=0;orthogonalLoop=1;jettySize=auto;html=1;" parent="WIyWlLk6GJQsqaUBKTNV-1" source="547pOjAtnvaFCTecrOGO-10" target="547pOjAtnvaFCTecrOGO-6" edge="1">
          <mxGeometry relative="1" as="geometry" />
        </mxCell>
        <mxCell id="547pOjAtnvaFCTecrOGO-10" value="通知取餐&lt;br&gt;（商戶點擊）" style="rounded=1;whiteSpace=wrap;html=1;fontSize=12;glass=0;strokeWidth=1;shadow=0;fillColor=#F2EEEE;" parent="WIyWlLk6GJQsqaUBKTNV-1" vertex="1">
          <mxGeometry x="552" y="240" width="120" height="40" as="geometry" />
        </mxCell>
        <mxCell id="547pOjAtnvaFCTecrOGO-12" value="已經完成" style="rounded=1;whiteSpace=wrap;html=1;fontSize=12;glass=0;strokeWidth=1;shadow=0;" parent="WIyWlLk6GJQsqaUBKTNV-1" vertex="1">
          <mxGeometry x="722" y="320" width="120" height="40" as="geometry" />
        </mxCell>
        <mxCell id="547pOjAtnvaFCTecrOGO-15" style="edgeStyle=orthogonalEdgeStyle;rounded=0;orthogonalLoop=1;jettySize=auto;html=1;" parent="WIyWlLk6GJQsqaUBKTNV-1" source="547pOjAtnvaFCTecrOGO-14" target="547pOjAtnvaFCTecrOGO-12" edge="1">
          <mxGeometry relative="1" as="geometry" />
        </mxCell>
        <mxCell id="547pOjAtnvaFCTecrOGO-14" value="取餐完成&lt;br style=&quot;border-color: var(--border-color);&quot;&gt;（商戶點擊）" style="rounded=1;whiteSpace=wrap;html=1;fontSize=12;glass=0;strokeWidth=1;shadow=0;fillColor=#F2EEEE;" parent="WIyWlLk6GJQsqaUBKTNV-1" vertex="1">
          <mxGeometry x="722" y="240" width="120" height="40" as="geometry" />
        </mxCell>
        <mxCell id="547pOjAtnvaFCTecrOGO-18" style="edgeStyle=orthogonalEdgeStyle;rounded=0;orthogonalLoop=1;jettySize=auto;html=1;entryX=0;entryY=0.5;entryDx=0;entryDy=0;" parent="WIyWlLk6GJQsqaUBKTNV-1" source="547pOjAtnvaFCTecrOGO-19" target="547pOjAtnvaFCTecrOGO-34" edge="1">
          <mxGeometry relative="1" as="geometry">
            <mxPoint x="354" y="520" as="targetPoint" />
          </mxGeometry>
        </mxCell>
        <mxCell id="547pOjAtnvaFCTecrOGO-44" style="rounded=0;orthogonalLoop=1;jettySize=auto;html=1;entryX=0.25;entryY=0;entryDx=0;entryDy=0;" parent="WIyWlLk6GJQsqaUBKTNV-1" source="547pOjAtnvaFCTecrOGO-19" target="547pOjAtnvaFCTecrOGO-40" edge="1">
          <mxGeometry relative="1" as="geometry" />
        </mxCell>
        <mxCell id="547pOjAtnvaFCTecrOGO-19" value="製作中" style="rounded=1;whiteSpace=wrap;html=1;fontSize=12;glass=0;strokeWidth=2;shadow=0;" parent="WIyWlLk6GJQsqaUBKTNV-1" vertex="1">
          <mxGeometry x="164" y="500" width="120" height="40" as="geometry" />
        </mxCell>
        <mxCell id="547pOjAtnvaFCTecrOGO-32" style="rounded=0;orthogonalLoop=1;jettySize=auto;html=1;entryX=0.5;entryY=0;entryDx=0;entryDy=0;" parent="WIyWlLk6GJQsqaUBKTNV-1" source="547pOjAtnvaFCTecrOGO-23" target="547pOjAtnvaFCTecrOGO-19" edge="1">
          <mxGeometry relative="1" as="geometry" />
        </mxCell>
        <mxCell id="547pOjAtnvaFCTecrOGO-23" value="用戶下單" style="rounded=1;whiteSpace=wrap;html=1;fontSize=12;glass=0;strokeWidth=1;shadow=0;fillColor=#F2EEEE;" parent="WIyWlLk6GJQsqaUBKTNV-1" vertex="1">
          <mxGeometry x="162" y="420" width="120" height="40" as="geometry" />
        </mxCell>
        <mxCell id="547pOjAtnvaFCTecrOGO-24" style="rounded=0;orthogonalLoop=1;jettySize=auto;html=1;entryX=1;entryY=0;entryDx=0;entryDy=0;" parent="WIyWlLk6GJQsqaUBKTNV-1" source="547pOjAtnvaFCTecrOGO-25" target="547pOjAtnvaFCTecrOGO-19" edge="1">
          <mxGeometry relative="1" as="geometry">
            <mxPoint x="414" y="500" as="targetPoint" />
          </mxGeometry>
        </mxCell>
        <mxCell id="547pOjAtnvaFCTecrOGO-25" value="通知取餐&lt;br&gt;（商戶點擊）" style="rounded=1;whiteSpace=wrap;html=1;fontSize=12;glass=0;strokeWidth=1;shadow=0;fillColor=#F2EEEE;" parent="WIyWlLk6GJQsqaUBKTNV-1" vertex="1">
          <mxGeometry x="354" y="420" width="120" height="40" as="geometry" />
        </mxCell>
        <mxCell id="547pOjAtnvaFCTecrOGO-27" style="rounded=0;orthogonalLoop=1;jettySize=auto;html=1;entryX=0.25;entryY=0;entryDx=0;entryDy=0;" parent="WIyWlLk6GJQsqaUBKTNV-1" source="547pOjAtnvaFCTecrOGO-28" target="547pOjAtnvaFCTecrOGO-34" edge="1">
          <mxGeometry relative="1" as="geometry">
            <mxPoint x="732" y="490" as="targetPoint" />
          </mxGeometry>
        </mxCell>
        <mxCell id="547pOjAtnvaFCTecrOGO-28" value="訂單完成&lt;br style=&quot;border-color: var(--border-color);&quot;&gt;（商戶點擊）" style="rounded=1;whiteSpace=wrap;html=1;fontSize=12;glass=0;strokeWidth=1;shadow=0;fillColor=#F2EEEE;" parent="WIyWlLk6GJQsqaUBKTNV-1" vertex="1">
          <mxGeometry x="740" y="420" width="120" height="40" as="geometry" />
        </mxCell>
        <mxCell id="547pOjAtnvaFCTecrOGO-30" style="edgeStyle=orthogonalEdgeStyle;rounded=0;orthogonalLoop=1;jettySize=auto;html=1;entryX=0.5;entryY=0;entryDx=0;entryDy=0;" parent="WIyWlLk6GJQsqaUBKTNV-1" source="547pOjAtnvaFCTecrOGO-29" target="547pOjAtnvaFCTecrOGO-1" edge="1">
          <mxGeometry relative="1" as="geometry" />
        </mxCell>
        <mxCell id="547pOjAtnvaFCTecrOGO-29" value="用戶確認訂單" style="rounded=1;whiteSpace=wrap;html=1;fontSize=12;glass=0;strokeWidth=1;shadow=0;fillColor=#F2EEEE;" parent="WIyWlLk6GJQsqaUBKTNV-1" vertex="1">
          <mxGeometry x="162" y="240" width="120" height="40" as="geometry" />
        </mxCell>
        <mxCell id="547pOjAtnvaFCTecrOGO-31" value="先就餐後付款" style="rounded=1;whiteSpace=wrap;html=1;fontSize=12;glass=0;strokeWidth=1;shadow=0;" parent="WIyWlLk6GJQsqaUBKTNV-1" vertex="1">
          <mxGeometry x="40" y="420" width="80" height="40" as="geometry" />
        </mxCell>
        <mxCell id="547pOjAtnvaFCTecrOGO-36" style="rounded=0;orthogonalLoop=1;jettySize=auto;html=1;" parent="WIyWlLk6GJQsqaUBKTNV-1" source="547pOjAtnvaFCTecrOGO-33" target="547pOjAtnvaFCTecrOGO-34" edge="1">
          <mxGeometry relative="1" as="geometry" />
        </mxCell>
        <mxCell id="547pOjAtnvaFCTecrOGO-33" value="用戶隨時在線支付" style="rounded=1;whiteSpace=wrap;html=1;fontSize=12;glass=0;strokeWidth=1;shadow=0;gradientColor=none;fillColor=#E6E6E6;" parent="WIyWlLk6GJQsqaUBKTNV-1" vertex="1">
          <mxGeometry x="890" y="420" width="120" height="40" as="geometry" />
        </mxCell>
        <mxCell id="547pOjAtnvaFCTecrOGO-34" value="已經完成" style="rounded=1;whiteSpace=wrap;html=1;fontSize=12;glass=0;strokeWidth=1;shadow=0;" parent="WIyWlLk6GJQsqaUBKTNV-1" vertex="1">
          <mxGeometry x="750" y="500" width="120" height="40" as="geometry" />
        </mxCell>
        <mxCell id="547pOjAtnvaFCTecrOGO-42" style="edgeStyle=orthogonalEdgeStyle;rounded=0;orthogonalLoop=1;jettySize=auto;html=1;entryX=0;entryY=0.5;entryDx=0;entryDy=0;" parent="WIyWlLk6GJQsqaUBKTNV-1" source="547pOjAtnvaFCTecrOGO-37" target="547pOjAtnvaFCTecrOGO-40" edge="1">
          <mxGeometry relative="1" as="geometry" />
        </mxCell>
        <mxCell id="547pOjAtnvaFCTecrOGO-37" value="用戶加單操作" style="rounded=1;whiteSpace=wrap;html=1;fontSize=12;glass=0;strokeWidth=1;shadow=0;fillColor=#EBEBEB;" parent="WIyWlLk6GJQsqaUBKTNV-1" vertex="1">
          <mxGeometry x="164" y="586" width="120" height="40" as="geometry" />
        </mxCell>
        <mxCell id="547pOjAtnvaFCTecrOGO-47" style="edgeStyle=orthogonalEdgeStyle;rounded=0;orthogonalLoop=1;jettySize=auto;html=1;entryX=0.5;entryY=0;entryDx=0;entryDy=0;" parent="WIyWlLk6GJQsqaUBKTNV-1" source="547pOjAtnvaFCTecrOGO-39" target="547pOjAtnvaFCTecrOGO-4" edge="1">
          <mxGeometry relative="1" as="geometry" />
        </mxCell>
        <mxCell id="547pOjAtnvaFCTecrOGO-39" value="打印pos小票" style="rounded=1;whiteSpace=wrap;html=1;fontSize=12;glass=0;strokeWidth=1;shadow=0;fillColor=#E8E8E8;" parent="WIyWlLk6GJQsqaUBKTNV-1" vertex="1">
          <mxGeometry x="352" y="240" width="120" height="40" as="geometry" />
        </mxCell>
        <mxCell id="547pOjAtnvaFCTecrOGO-40" value="打印pos小票" style="rounded=1;whiteSpace=wrap;html=1;fontSize=12;glass=0;strokeWidth=1;shadow=0;fillColor=#e7e4e4;" parent="WIyWlLk6GJQsqaUBKTNV-1" vertex="1">
          <mxGeometry x="354" y="586" width="120" height="40" as="geometry" />
        </mxCell>
      </root>
    </mxGraphModel>
  </diagram>
</mxfile>
